# xmcd CD database file
#
# Track frame offsets:
#	150
#	23297
#	43104
#	62397
#	80487
#	97949
#	121555
#	139941
#	156092
#	177290
#	194366
#	214810
#
# Disc length: 3096 seconds
#
# Revision: 2
# Processed by: cddbd v1.5.1PL0 Copyright (c) Steve Scherf et al.
# Submitted via: CDex 1.51
#
DISCID=910c160c
DTITLE=Various Artist - Relaxing Moods III
DYEAR=2005
DGENRE=New Age
TTITLE0=Yoga - Healing Mind
TTITLE1=Yoga - The Journey
TTITLE2=Yoga - Circle of Light
TTITLE3=Yoga - Glowing
TTITLE4=Yoga - Garden of Eden
TTITLE5=Yoga - Comforting Words
TTITLE6=Yoga - Going Forward
TTITLE7=Yoga - Healing Spirit
TTITLE8=Yoga - Essence of Life
TTITLE9=Yoga - Regeneration
TTITLE10=Yoga - Calming Moments
TTITLE11=Yoga - Returning
EXTD=YEAR: 2005
EXTT0=
EXTT1=
EXTT2=
EXTT3=
EXTT4=
EXTT5=
EXTT6=
EXTT7=
EXTT8=
EXTT9=
EXTT10=
EXTT11=
PLAYORDER=
